<?xml version="1.0" encoding="utf-8"?>
<!-- Generator: Adobe Illustrator 26.0.1, SVG Export Plug-In . SVG Version: 6.00 Build 0)  -->
<svg version="1.1" id="Calque_1" xmlns="http://www.w3.org/2000/svg" xmlns:xlink="http://www.w3.org/1999/xlink" x="0px" y="0px"
	 viewBox="0 0 70 150" style="enable-background:new 0 0 70 150;" xml:space="preserve">
<style type="text/css">
	.st0{fill:#FFFFFF;}
</style>
<g>
	<path class="st0" d="M39.35,7.05c-0.19-0.32-0.44-0.59-0.76-0.81c-0.31-0.21-0.68-0.41-1.09-0.58c-0.41-0.18-0.84-0.33-1.29-0.46
		c-0.45-0.14-0.9-0.27-1.35-0.4c-0.46-0.13-0.89-0.26-1.3-0.38c-0.42-0.13-0.78-0.28-1.1-0.45c-0.31-0.17-0.56-0.38-0.74-0.64
		c-0.19-0.25-0.28-0.54-0.28-0.87c0-0.36,0.08-0.68,0.23-0.96c0.16-0.27,0.35-0.48,0.56-0.62c0.22-0.14,0.47-0.25,0.76-0.34
		c0.29-0.08,0.54-0.13,0.73-0.16c0.2-0.02,0.39-0.03,0.58-0.03c0.59,0,1.1,0.01,1.55,0.03l0.87,1.86l2.44,0.05V0.1L34.3,0
		c-0.25,0-0.49,0-0.7,0.01c-0.22,0.01-0.47,0.03-0.76,0.06c-0.28,0.03-0.55,0.07-0.78,0.11c-0.24,0.05-0.49,0.11-0.76,0.2
		c-0.26,0.08-0.5,0.18-0.71,0.29c-0.21,0.12-0.41,0.26-0.61,0.43c-0.19,0.17-0.36,0.36-0.49,0.57s-0.23,0.46-0.31,0.74
		C29.1,2.69,29.06,3,29.06,3.34c0,0.55,0.15,1.03,0.45,1.43c0.3,0.4,0.69,0.72,1.16,0.94c0.48,0.23,1.01,0.42,1.58,0.59
		c0.58,0.17,1.15,0.34,1.72,0.5c0.56,0.17,1.09,0.32,1.57,0.46c0.49,0.14,0.88,0.36,1.18,0.66c0.3,0.29,0.45,0.64,0.45,1.06
		c0,0.31-0.06,0.59-0.16,0.84c-0.11,0.25-0.24,0.46-0.4,0.61c-0.15,0.15-0.34,0.29-0.55,0.4c-0.22,0.12-0.42,0.2-0.6,0.25
		c-0.17,0.05-0.36,0.09-0.56,0.12c-0.19,0.03-0.32,0.04-0.39,0.04c-0.07,0.01-0.12,0.01-0.16,0.01l-0.29,0.01h-0.15
		c-0.17,0.01-0.39,0-0.66-0.01c-0.33-0.02-0.7-0.06-1.11-0.11c-0.39-0.04-0.81-0.13-1.27-0.25c-0.46-0.12-0.88-0.27-1.26-0.46
		l-0.15,0.35c0.87,0.34,1.68,0.57,2.42,0.68c0.74,0.11,1.56,0.17,2.47,0.17h0.18c0.12-0.01,0.29-0.02,0.49-0.04
		c0.2-0.02,0.44-0.05,0.7-0.09c0.27-0.04,0.54-0.09,0.84-0.18c0.29-0.08,0.58-0.18,0.87-0.29c0.29-0.11,0.57-0.25,0.83-0.43
		c0.27-0.18,0.5-0.38,0.7-0.61c0.21-0.22,0.37-0.49,0.49-0.81s0.18-0.66,0.18-1.04C39.63,7.74,39.54,7.37,39.35,7.05z"/>
	<path class="st0" d="M32.88,21.69c0.22-0.42,0.47-0.76,0.77-1.04c0.3-0.28,0.61-0.47,0.93-0.6c0.32-0.12,0.66-0.18,1.02-0.18
		l1.55,0.03l0.87,1.84l2.44,0.04v-2.19L35.6,19.5c-0.64,0-1.25,0.07-1.82,0.2c-0.57,0.14-1.11,0.35-1.61,0.66
		c-0.51,0.3-0.94,0.67-1.3,1.11s-0.65,0.99-0.86,1.65c-0.21,0.65-0.31,1.39-0.31,2.19c0,0.81,0.1,1.54,0.31,2.19
		c0.21,0.66,0.5,1.2,0.86,1.65c0.36,0.44,0.79,0.81,1.3,1.11c0.5,0.3,1.04,0.52,1.61,0.65c0.57,0.14,1.18,0.21,1.82,0.21h0.37
		c0.17,0.01,0.38,0,0.65-0.02c0.33-0.02,0.68-0.06,1.06-0.11c0.39-0.05,0.84-0.13,1.34-0.26c0.5-0.12,0.97-0.27,1.42-0.45
		l-0.15-0.35c-0.39,0.17-0.82,0.31-1.29,0.42c-0.46,0.12-0.89,0.2-1.26,0.25c-0.38,0.04-0.74,0.08-1.09,0.11
		c-0.26,0.02-0.47,0.03-0.62,0.03h-0.14c-0.16-0.01-0.26-0.01-0.29,0c-0.35,0-0.69-0.06-1.01-0.18c-0.33-0.12-0.63-0.32-0.93-0.6
		c-0.3-0.28-0.55-0.62-0.77-1.03c-0.22-0.41-0.39-0.92-0.52-1.54c-0.13-0.62-0.2-1.32-0.2-2.08s0.07-1.45,0.2-2.08
		C32.49,22.61,32.66,22.1,32.88,21.69z"/>
	<path class="st0" d="M36.83,45.81c1-0.16,1.81-0.51,2.41-1.06c0.61-0.55,0.91-1.3,0.91-2.26c0-0.58-0.12-1.1-0.36-1.55
		c-0.25-0.45-0.58-0.8-1.01-1.07c-0.43-0.26-0.91-0.46-1.44-0.59c-0.53-0.13-1.11-0.19-1.74-0.19h-4.15l-1.8,0.94v10.42h2.27v-4.54
		h2.07l3.67,4.54l2.91-0.01L36.83,45.81z M35.48,45.43c-0.27,0.06-0.55,0.09-0.83,0.09h-2.73v-6.06h2.73c0.28,0,0.56,0.03,0.83,0.09
		c0.27,0.06,0.54,0.17,0.81,0.32c0.27,0.14,0.51,0.33,0.72,0.55c0.2,0.22,0.37,0.51,0.5,0.87c0.12,0.36,0.19,0.76,0.19,1.2
		c0,0.45-0.07,0.85-0.19,1.21c-0.13,0.35-0.3,0.64-0.5,0.86c-0.21,0.23-0.45,0.41-0.72,0.56C36.02,45.27,35.75,45.37,35.48,45.43z"
		/>
	<path class="st0" d="M40.62,62.06c-0.21-0.66-0.49-1.22-0.85-1.67c-0.36-0.45-0.79-0.82-1.29-1.12c-0.5-0.3-1.03-0.52-1.6-0.66
		s-1.18-0.21-1.82-0.21s-1.24,0.07-1.81,0.21s-1.1,0.36-1.6,0.66c-0.5,0.3-0.93,0.67-1.29,1.12c-0.36,0.45-0.65,1.01-0.86,1.67
		c-0.2,0.66-0.31,1.4-0.31,2.21c0,0.82,0.11,1.56,0.31,2.22c0.21,0.66,0.5,1.22,0.86,1.67s0.79,0.82,1.29,1.12s1.03,0.52,1.6,0.66
		c0.57,0.14,1.17,0.21,1.81,0.21s1.25-0.07,1.82-0.21c0.57-0.14,1.1-0.36,1.6-0.66s0.93-0.67,1.29-1.12
		c0.36-0.45,0.64-1.01,0.85-1.67c0.21-0.66,0.32-1.4,0.32-2.22C40.94,63.46,40.83,62.72,40.62,62.06z M38.19,66.8
		c-0.2,0.73-0.46,1.3-0.79,1.72c-0.32,0.42-0.68,0.74-1.08,0.94c-0.39,0.2-0.81,0.31-1.26,0.31c-0.35,0-0.69-0.06-1.01-0.19
		c-0.32-0.12-0.63-0.32-0.92-0.6c-0.29-0.29-0.55-0.63-0.76-1.05c-0.22-0.41-0.39-0.93-0.52-1.56c-0.13-0.62-0.19-1.32-0.19-2.1
		c0-0.77,0.06-1.47,0.19-2.09c0.13-0.63,0.3-1.15,0.52-1.57c0.21-0.41,0.47-0.76,0.76-1.04c0.29-0.28,0.6-0.48,0.92-0.61
		c0.32-0.12,0.66-0.18,1.01-0.18s0.69,0.06,1.01,0.18s0.63,0.32,0.93,0.6c0.3,0.29,0.55,0.64,0.77,1.05
		c0.21,0.42,0.38,0.94,0.51,1.57c0.13,0.62,0.2,1.32,0.2,2.09C38.48,65.23,38.38,66.07,38.19,66.8z"/>
	<path class="st0" d="M36.09,87.28l-0.9,1.8h-3.27V78.09h-2.27v10.42l1.79,0.95h6.92v-2.18H36.09z"/>
	<path class="st0" d="M36.09,106.78l-0.9,1.8h-3.27V97.59h-2.27v10.42l1.79,0.95h6.92v-2.18H36.09z"/>
	<path class="st0" d="M34.7,122.1v19.3c-0.22,0.53-0.44,1.07-0.66,1.6c-0.24-0.53-0.48-1.07-0.72-1.6v-18.94l0.66-0.36H34.7z"/>
</g>
<polygon class="st0" points="34.08,142.39 36.39,140.08 35.75,138.17 37.36,136.56 38.9,138.11 34.01,143 "/>
<polygon class="st0" points="33.94,142.39 31.63,140.08 32.27,138.17 30.66,136.56 29.11,138.11 34.01,143 "/>
</svg>
